<svg xmlns="http://www.w3.org/2000/svg" viewBox="0 0 64 64" role="img" aria-label="TikTok">
  <circle cx="32" cy="32" r="32" fill="#050505"/>
  <path d="M39.6 16c1.1 5.4 4.2 8.9 9.4 10.1v8.1a19 19 0 0 1-9.2-2.8v12.7c0 8-6 13.9-14.2 13.9-7.5 0-13.1-5-13.1-11.9 0-7.2 5.8-12.4 13.9-12.4 1 0 1.9.1 2.7.3v8.2a7.5 7.5 0 0 0-2.7-.5c-3.2 0-5.4 1.8-5.4 4.3 0 2.4 2 4.1 4.7 4.1 3.2 0 5.3-2.2 5.3-5.8V16h8.6Z" fill="#25f4ee"/>
  <path d="M42.5 16c1.1 5.4 4.2 8.9 9.4 10.1v8.1a19 19 0 0 1-9.2-2.8v12.7c0 8-6 13.9-14.2 13.9-4.9 0-9-2.1-11.3-5.5 2.3 1.8 5.3 2.9 8.7 2.9 8.2 0 14.2-5.9 14.2-13.9V28.8a19 19 0 0 0 9.2 2.8v-4.2a13.4 13.4 0 0 1-6.8-6.5V16Z" fill="#fe2c55"/>
  <path d="M39.6 16c1.1 5.4 4.2 8.9 9.4 10.1v5.5a19 19 0 0 1-9.2-2.8v12.7c0 8-6 13.9-14.2 13.9-7.5 0-13.1-5-13.1-11.9 0-7.2 5.8-12.4 13.9-12.4 1 0 1.9.1 2.7.3v7.5a7.5 7.5 0 0 0-2.7-.5c-3.2 0-5.4 1.8-5.4 4.3 0 2.4 2 4.1 4.7 4.1 3.2 0 5.3-2.2 5.3-5.8V16h8.6Z" fill="#fff"/>
</svg>
