<svg xmlns="http://www.w3.org/2000/svg" viewBox="0 0 320 240" role="img" aria-label="UN Security Council logo">
  <rect width="320" height="240" rx="8" fill="#fff"/>
  <g fill="none" stroke="#5b95cf" stroke-width="7">
    <circle cx="160" cy="82" r="55"/>
    <ellipse cx="160" cy="82" rx="25" ry="55"/>
    <path d="M105 82h110M160 27v110M121 46c22 13 56 13 78 0M121 118c22-13 56-13 78 0"/>
  </g>
  <g fill="none" stroke="#5b95cf" stroke-width="8" stroke-linecap="round">
    <path d="M80 132c28 14 55 14 80 1"/>
    <path d="M240 132c-28 14-55 14-80 1"/>
    <path d="M83 111c-20-22-26-48-12-76"/>
    <path d="M237 111c20-22 26-48 12-76"/>
  </g>
  <text x="160" y="216" text-anchor="middle" font-family="Arial, Helvetica, sans-serif" font-size="54" font-weight="900" fill="#5b95cf">UNSC</text>
</svg>
