<svg xmlns="http://www.w3.org/2000/svg" viewBox="0 0 320 240" role="img" aria-label="ECOSOC logo">
  <rect width="320" height="240" rx="8" fill="#fff"/>
  <g fill="none" stroke="#1e7ed2" stroke-width="8">
    <circle cx="160" cy="84" r="55"/>
    <ellipse cx="160" cy="84" rx="25" ry="55"/>
    <path d="M105 84h110M160 29v110M122 48c22 12 54 12 76 0M122 120c22-12 54-12 76 0"/>
  </g>
  <g fill="none" stroke="#1e7ed2" stroke-width="9" stroke-linecap="round">
    <path d="M69 126c30 18 61 19 91 7"/>
    <path d="M251 126c-30 18-61 19-91 7"/>
    <path d="M74 103c-22-22-28-49-14-76"/>
    <path d="M246 103c22-22 28-49 14-76"/>
  </g>
  <text x="160" y="216" text-anchor="middle" font-family="Arial, Helvetica, sans-serif" font-size="58" font-weight="900" fill="#1e7ed2">ECOSOC</text>
</svg>
